<svg version="1.1" id="Layer_1" xmlns="http://www.w3.org/2000/svg" xmlns:xlink="http://www.w3.org/1999/xlink" x="0px" y="0px"
	 width="100%" viewBox="0 0 600 600" enable-background="new 0 0 600 600" xml:space="preserve">
<path fill="#1677FF" opacity="1.000000" stroke="none" 
	d="
M601.000000,102.000000 
	C601.000000,205.022644 601.000000,308.045288 600.646973,411.410767 
	C534.787292,391.306030 469.280670,370.858398 403.108734,350.203094 
	C426.068542,310.247131 442.336121,268.964233 453.176971,224.927429 
	C412.286285,224.927429 371.858673,224.927429 331.420654,224.927429 
	C331.420654,210.786545 331.420654,197.093735 331.420654,182.985199 
	C381.427185,182.985199 431.015167,182.985199 480.707245,182.985199 
	C480.707245,174.492584 480.707245,166.425079 480.707245,157.831696 
	C430.693420,157.831696 380.970581,157.831696 330.770813,157.831696 
	C330.770813,134.559631 330.770813,111.814232 330.770813,88.834602 
	C311.634979,88.834602 292.979889,88.788376 274.325134,88.855209 
	C265.733368,88.885986 261.855804,92.876877 261.841553,101.494774 
	C261.813385,118.494423 261.833038,135.494141 261.832947,152.493835 
	C261.832947,154.250641 261.832977,156.007462 261.832977,158.304047 
	C214.508957,158.304047 167.948578,158.304047 121.456299,158.304047 
	C121.456299,166.791153 121.456299,174.727905 121.456299,183.267929 
	C168.298431,183.267929 214.853500,183.267929 261.520508,183.267929 
	C261.520508,197.453995 261.520508,211.026855 261.520508,225.065674 
	C223.131348,225.065674 185.051407,225.065674 146.795319,225.065674 
	C146.795319,232.796036 146.795319,240.055359 146.795319,247.803085 
	C224.345459,247.803085 301.599976,247.803085 379.406738,247.803085 
	C378.908539,249.803909 378.619354,251.231705 378.197723,252.619293 
	C370.730316,277.195496 361.092957,300.873108 349.384155,323.752289 
	C346.939148,328.529846 344.853271,329.588654 339.645203,327.782135 
	C306.965240,316.446808 274.268982,305.056213 239.947021,299.506226 
	C207.651718,294.283966 175.274780,290.218811 142.526108,295.013885 
	C115.873848,298.916321 91.737503,308.232117 72.543327,328.045807 
	C46.390739,355.042511 33.006405,406.496765 56.078911,445.607452 
	C70.663795,470.330597 92.389603,486.469116 119.241508,494.879944 
	C177.409164,513.099854 233.109024,505.444580 285.723145,475.460144 
	C316.525391,457.906158 341.132904,433.022552 363.673187,406.022827 
	C365.918457,403.333313 367.618042,402.592407 371.101379,404.158478 
	C436.330994,433.485718 501.625122,462.669586 566.925781,491.838501 
	C577.675964,496.640472 588.520691,501.230621 599.058044,505.804199 
	C599.210815,506.640808 599.374329,506.979614 599.311218,507.269012 
	C589.975525,550.106995 564.762695,579.346436 523.758057,594.712463 
	C516.125244,597.572815 507.933685,598.942383 500.000000,601.000000 
	C367.310699,601.000000 234.621384,601.000000 101.299957,600.635986 
	C53.561359,592.070496 21.772261,565.667908 6.075138,520.358521 
	C3.897888,514.073914 2.668294,507.460968 1.000001,501.000000 
	C1.000000,367.977356 1.000000,234.954727 1.368505,101.292862 
	C9.639143,54.077316 35.776966,22.646448 80.204353,6.621646 
	C86.936295,4.193458 94.058380,2.846877 101.000000,1.000000 
	C233.689316,1.000000 366.378632,1.000000 499.707916,1.367501 
	C547.439270,9.253298 579.214294,35.446568 595.468872,80.223213 
	C598.011780,87.228317 599.190491,94.728661 601.000000,102.000000 
z"/>
<path fill="#FEFFFF" opacity="1.000000" stroke="none" 
	d="
M500.468658,601.000000 
	C507.933685,598.942383 516.125244,597.572815 523.758057,594.712463 
	C564.762695,579.346436 589.975525,550.106995 599.311218,507.269012 
	C599.374329,506.979614 599.210815,506.640808 599.058044,505.804199 
	C588.520691,501.230621 577.675964,496.640472 566.925781,491.838501 
	C501.625122,462.669586 436.330994,433.485718 371.101379,404.158478 
	C367.618042,402.592407 365.918457,403.333313 363.673187,406.022827 
	C341.132904,433.022552 316.525391,457.906158 285.723145,475.460144 
	C233.109024,505.444580 177.409164,513.099854 119.241508,494.879944 
	C92.389603,486.469116 70.663795,470.330597 56.078911,445.607452 
	C33.006405,406.496765 46.390739,355.042511 72.543327,328.045807 
	C91.737503,308.232117 115.873848,298.916321 142.526108,295.013885 
	C175.274780,290.218811 207.651718,294.283966 239.947021,299.506226 
	C274.268982,305.056213 306.965240,316.446808 339.645203,327.782135 
	C344.853271,329.588654 346.939148,328.529846 349.384155,323.752289 
	C361.092957,300.873108 370.730316,277.195496 378.197723,252.619293 
	C378.619354,251.231705 378.908539,249.803909 379.406738,247.803085 
	C301.599976,247.803085 224.345459,247.803085 146.795319,247.803085 
	C146.795319,240.055359 146.795319,232.796036 146.795319,225.065674 
	C185.051407,225.065674 223.131348,225.065674 261.520508,225.065674 
	C261.520508,211.026855 261.520508,197.453995 261.520508,183.267929 
	C214.853500,183.267929 168.298431,183.267929 121.456299,183.267929 
	C121.456299,174.727905 121.456299,166.791153 121.456299,158.304047 
	C167.948578,158.304047 214.508957,158.304047 261.832977,158.304047 
	C261.832977,156.007462 261.832947,154.250641 261.832947,152.493835 
	C261.833038,135.494141 261.813385,118.494423 261.841553,101.494774 
	C261.855804,92.876877 265.733368,88.885986 274.325134,88.855209 
	C292.979889,88.788376 311.634979,88.834602 330.770813,88.834602 
	C330.770813,111.814232 330.770813,134.559631 330.770813,157.831696 
	C380.970581,157.831696 430.693420,157.831696 480.707245,157.831696 
	C480.707245,166.425079 480.707245,174.492584 480.707245,182.985199 
	C431.015167,182.985199 381.427185,182.985199 331.420654,182.985199 
	C331.420654,197.093735 331.420654,210.786545 331.420654,224.927429 
	C371.858673,224.927429 412.286285,224.927429 453.176971,224.927429 
	C442.336121,268.964233 426.068542,310.247131 403.108734,350.203094 
	C469.280670,370.858398 534.787292,391.306030 600.646973,411.876831 
	C601.000000,474.904816 601.000000,537.809631 601.000000,601.000000 
	C567.646301,601.000000 534.291809,601.000000 500.468658,601.000000 
M162.553940,464.957306 
	C184.375381,465.489746 205.214981,461.149567 225.142227,452.315552 
	C259.461060,437.101501 286.457581,412.779022 309.928558,384.085266 
	C311.781616,381.819885 313.500366,379.444611 315.511353,376.820465 
	C312.886932,375.537781 310.828003,374.512756 308.753479,373.520294 
	C259.483093,349.949646 208.341431,333.624146 153.080093,333.019318 
	C132.998230,332.799530 113.914879,336.240540 97.126991,347.952423 
	C83.135910,357.713165 72.417664,370.294586 70.047569,387.654846 
	C66.809196,411.375000 76.482964,430.355896 94.869965,444.784027 
	C114.360435,460.078003 137.597672,463.954895 162.553940,464.957306 
z"/>
<path fill="#FEFEFF" opacity="1.000000" stroke="none" 
	d="
M601.000000,101.531342 
	C599.190491,94.728661 598.011780,87.228317 595.468872,80.223213 
	C579.214294,35.446568 547.439270,9.253298 500.173950,1.367501 
	C533.593628,1.000000 567.187195,1.000000 601.000000,1.000000 
	C601.000000,34.353909 601.000000,67.708298 601.000000,101.531342 
z"/>
<path fill="#FEFEFF" opacity="1.000000" stroke="none" 
	d="
M100.531342,1.000000 
	C94.058380,2.846877 86.936295,4.193458 80.204353,6.621646 
	C35.776966,22.646448 9.639143,54.077316 1.368505,100.826813 
	C1.000000,67.739731 1.000000,34.479462 1.000000,1.000000 
	C34.020573,1.000000 67.041626,1.000000 100.531342,1.000000 
z"/>
<path fill="#FEFFFF" opacity="1.000000" stroke="none" 
	d="
M1.000001,501.468658 
	C2.668294,507.460968 3.897888,514.073914 6.075138,520.358521 
	C21.772261,565.667908 53.561359,592.070496 100.833916,600.635986 
	C67.739731,601.000000 34.479465,601.000000 1.000000,601.000000 
	C1.000000,567.979431 1.000000,534.958374 1.000001,501.468658 
z"/>
<path fill="#1777FF" opacity="1.000000" stroke="none" 
	d="
M162.066895,464.911560 
	C137.597672,463.954895 114.360435,460.078003 94.869965,444.784027 
	C76.482964,430.355896 66.809196,411.375000 70.047569,387.654846 
	C72.417664,370.294586 83.135910,357.713165 97.126991,347.952423 
	C113.914879,336.240540 132.998230,332.799530 153.080093,333.019318 
	C208.341431,333.624146 259.483093,349.949646 308.753479,373.520294 
	C310.828003,374.512756 312.886932,375.537781 315.511353,376.820465 
	C313.500366,379.444611 311.781616,381.819885 309.928558,384.085266 
	C286.457581,412.779022 259.461060,437.101501 225.142227,452.315552 
	C205.214981,461.149567 184.375381,465.489746 162.066895,464.911560 
z"/>
</svg>